<?xml version="1.0" encoding="UTF-8" standalone="no"?>
<!-- Created with Inkscape (http://www.inkscape.org/) -->

<svg
   width="210mm"
   height="297mm"
   viewBox="0 0 210 297"
   version="1.1"
   id="svg1"
   inkscape:version="1.3.2 (091e20e, 2023-11-25, custom)"
   sodipodi:docname="lil_dude.svg"
   xmlns:inkscape="http://www.inkscape.org/namespaces/inkscape"
   xmlns:sodipodi="http://sodipodi.sourceforge.net/DTD/sodipodi-0.dtd"
   xmlns="http://www.w3.org/2000/svg"
   xmlns:svg="http://www.w3.org/2000/svg">
  <sodipodi:namedview
     id="namedview1"
     pagecolor="#505050"
     bordercolor="#eeeeee"
     borderopacity="1"
     inkscape:showpageshadow="0"
     inkscape:pageopacity="0"
     inkscape:pagecheckerboard="0"
     inkscape:deskcolor="#505050"
     inkscape:document-units="mm"
     inkscape:zoom="2"
     inkscape:cx="562"
     inkscape:cy="446.75"
     inkscape:window-width="3840"
     inkscape:window-height="2126"
     inkscape:window-x="-11"
     inkscape:window-y="-11"
     inkscape:window-maximized="1"
     inkscape:current-layer="layer3" />
  <defs
     id="defs1">
    <rect
       x="214.88743"
       y="451.14488"
       width="103.28843"
       height="99.726762"
       id="rect7" />
    <inkscape:perspective
       sodipodi:type="inkscape:persp3d"
       inkscape:vp_x="219.83275 : 193.47247 : 1"
       inkscape:vp_y="105.30223 : 1595.2454 : 0"
       inkscape:vp_z="-145.48529 : 211.4959 : 1"
       inkscape:persp3d-origin="31.961289 : 123.51951 : 1"
       id="perspective2" />
  </defs>
  <g
     inkscape:label="Layer 1"
     inkscape:groupmode="layer"
     id="layer1">
    <text
       xml:space="preserve"
       transform="scale(0.26458333)"
       id="text7"
       style="fill:#000000;white-space:pre;shape-inside:url(#rect7)" />
    <path
       style="fill:#f9f9f9;fill-opacity:1;stroke:#000000;stroke-width:0;stroke-linejoin:miter;stroke-dasharray:none;stroke-opacity:1"
       d="M 124.75103,73.951041 V 34.263542"
       id="path121" />
    <rect
       style="fill:#f9f9f9;fill-opacity:1;stroke:#000000;stroke-width:0;stroke-linejoin:miter;stroke-dasharray:none;stroke-opacity:1"
       id="rect127"
       width="34.924999"
       height="38.602249"
       x="90.487488"
       y="32.024761"
       ry="0" />
    <ellipse
       style="fill:#f9f9f9;fill-opacity:1;stroke:#000000;stroke-width:0;stroke-linejoin:miter;stroke-dasharray:none;stroke-opacity:1"
       id="path127"
       transform="scale(1,-1)"
       ry="6.9287353"
       rx="17.4625"
       cy="-32.857899"
       cx="107.94999" />
    <ellipse
       style="fill:#f9f9f9;fill-opacity:1;stroke:#000000;stroke-width:0;stroke-linejoin:miter;stroke-dasharray:none;stroke-opacity:1"
       id="ellipse127"
       cx="107.94999"
       cy="69.932709"
       rx="17.4625"
       ry="2.4308186" />
    <ellipse
       style="fill:#1a1a1a;fill-opacity:1;stroke:#000000;stroke-width:0;stroke-linejoin:miter;stroke-dasharray:none;stroke-opacity:1"
       id="path130"
       cx="107.42083"
       cy="73.554161"
       rx="21.960417"
       ry="8.2020836" />
  </g>
  <g
     inkscape:groupmode="layer"
     id="layer3"
     inkscape:label="Layer 2">
    <g
       id="g132"
       transform="translate(-5.2916667,-5.4239583)">
      <path
         style="fill:none;stroke-width:0.264583"
         d="m 87.806026,79.751126 c -2.970609,0 -5.969307,-0.03571 -8.795348,1.413539 -3.860588,1.979787 -5.748893,8.724945 -6.282388,12.25066 -0.975601,6.447446 -2.581921,20.198375 -0.314121,27.956635 0.594844,2.03499 1.41683,3.99762 2.198838,5.96827 2.853404,7.19058 5.664951,11.14875 10.994181,16.96245 0.802039,0.87496 1.479367,1.86971 2.355897,2.67002 2.174571,1.98548 5.143146,4.32517 7.852987,5.81121 0.596752,0.32725 1.268905,0.49551 1.884717,0.7853 1.790716,0.84269 5.449461,2.98061 7.381811,3.29826 2.85301,0.46898 5.75454,0.57633 8.63828,0.7853 1.1439,0.0829 6.5131,-0.13973 6.59651,-0.15707 9.35611,-1.94412 15.5748,-5.87932 23.55897,-10.99418 3.21039,-2.05666 5.33303,-4.12903 8.32416,-7.06769 0.98028,-0.96307 2.00658,-1.93774 2.67002,-3.14119 1.60651,-2.91414 3.16938,-5.90988 4.08355,-9.10947 0.57602,-2.01607 0.22683,-4.18746 0.31412,-6.28239 0.16467,-3.95205 -0.48833,-4.58244 -2.19884,-8.32417 -0.63124,-1.38083 -1.11778,-2.76822 -2.19883,-3.92649 -7.54707,-8.08615 -8.89875,-8.10388 -19.16129,-14.763617 -6.61149,-4.290435 -13.84451,-7.529406 -21.04601,-10.680062 -1.20412,-0.523534 -2.40825,-1.047065 -3.61238,-1.570598 -0.20941,-0.05235 -0.42722,-0.0784 -0.62823,-0.15706 -1.33161,-0.521062 -2.5789,-1.249476 -3.9265,-1.727657 -1.29509,-0.45955 -2.6423,-0.767265 -3.92649,-1.256477 -0.91918,-0.350169 -1.74901,-0.911104 -2.670013,-1.256478 -1.27263,-0.477236 -2.631307,-0.687313 -3.926496,-1.09942 -3.00264,-0.955384 -5.995672,-1.660925 -9.109464,-0.942359 -1.584012,0.365544 -3.077273,1.632689 -4.397674,2.512957 -0.351197,0.23413 -0.761751,0.374989 -1.099417,0.62824 -0.09365,0.07024 -0.05966,0.249182 -0.15706,0.314119 -0.08712,0.05808 -0.230354,-0.06282 -0.314121,0 -1.134766,0.851074 -0.09457,0.189135 -0.314119,0.62824 -0.570573,1.141145 -0.0439,-0.09121 -0.628239,0.785299 -0.02904,0.04356 0.03702,0.120039 0,0.157059 -0.08278,0.08278 -0.231341,0.07428 -0.314119,0.15706"
         id="path8" />
      <g
         id="g131">
        <g
           id="g130">
          <ellipse
             style="fill:none;stroke:#000000;stroke-width:0.264999;stroke-dasharray:none;stroke-opacity:1"
             id="path10"
             cx="113.48529"
             cy="111.08454"
             rx="35.731094"
             ry="34.631676" />
          <ellipse
             style="fill:none;stroke:#000000;stroke-width:0.264999;stroke-dasharray:none;stroke-opacity:1"
             id="path13"
             cx="99.58551"
             cy="103.38862"
             rx="4.7117925"
             ry="6.5179796" />
          <ellipse
             style="fill:none;stroke:#000000;stroke-width:0.264999;stroke-dasharray:none;stroke-opacity:1"
             id="path13-9"
             cx="125.78683"
             cy="103.09286"
             rx="4.7117925"
             ry="6.5179796" />
          <path
             style="fill:none;stroke:#000000;stroke-width:0.264999;stroke-dasharray:none;stroke-opacity:1"
             d="m 94.559595,128.59671 c 0,0 23.087785,18.84717 36.437865,-1.25648"
             id="path14" />
          <ellipse
             style="fill:none;stroke:#000000;stroke-width:0.264999;stroke-dasharray:none;stroke-opacity:1"
             id="path15"
             cx="112.38587"
             cy="119.87989"
             rx="5.7326813"
             ry="5.5756216" />
          <path
             style="fill:#ff0000;stroke:#000000;stroke-width:0.111233;stroke-dasharray:none;stroke-opacity:1"
             d="m 111.01563,125.08463 c -1.63436,-0.43992 -2.95181,-1.52201 -3.65448,-3.00162 -0.3643,-0.76713 -0.41917,-0.99392 -0.45861,-1.89555 -0.0357,-0.81673 0.003,-1.18011 0.18908,-1.79413 0.83574,-2.7515 3.72573,-4.40476 6.53992,-3.74125 1.68011,0.39613 3.04607,1.48796 3.77723,3.01922 0.40688,0.85212 0.41407,0.89035 0.41407,2.19989 0,1.31171 -0.007,1.34647 -0.4179,2.20795 -1.13603,2.37927 -3.89472,3.67694 -6.38931,3.00549 z"
             id="path53" />
          <ellipse
             style="fill:#0000ff;stroke:#000000;stroke-width:0.264999;stroke-dasharray:none;stroke-opacity:1"
             id="path54"
             cx="99.553795"
             cy="104.04542"
             rx="2.5543344"
             ry="2.4432764" />
          <ellipse
             style="fill:#0000ff;stroke:#000000;stroke-width:0.264999;stroke-dasharray:none;stroke-opacity:1"
             id="path54-4"
             cx="125.96631"
             cy="103.1666"
             rx="2.5543344"
             ry="2.4432764" />
          <path
             style="fill:#f9f9f9;stroke:#000000;stroke-width:0.111233;stroke-dasharray:none;stroke-opacity:1"
             d="m 98.590281,109.55621 c -0.690451,-0.22586 -1.18092,-0.56468 -1.803413,-1.24579 -1.836862,-2.00982 -2.2332,-5.81169 -0.890238,-8.539634 0.72512,-1.472922 2.118127,-2.570385 3.421565,-2.695628 1.177005,-0.113096 2.448915,0.557168 3.371785,1.776831 2.01116,2.657961 1.81907,7.296571 -0.39612,9.565511 -0.78299,0.80198 -1.58876,1.20265 -2.517944,1.25205 -0.417187,0.0222 -0.91762,-0.0257 -1.185635,-0.11334 z m 2.312479,-3.24234 c 1.84948,-0.93721 1.82436,-3.60395 -0.043,-4.56254 -2.057007,-1.05594 -4.489845,0.6881 -3.971855,2.84733 0.419815,1.74998 2.333146,2.56739 4.014845,1.71521 z"
             id="path55" />
          <path
             style="fill:#f9f9f9;stroke:#000000;stroke-width:0.111233;stroke-dasharray:none;stroke-opacity:1"
             d="m 124.36769,109.05721 c -2.90622,-1.37489 -4.0064,-6.24984 -2.19038,-9.705735 1.49159,-2.838498 4.37485,-3.401471 6.35036,-1.239946 1.15843,1.267512 1.73133,2.923751 1.72602,4.989901 -0.004,1.54336 -0.18346,2.36771 -0.78218,3.59219 -1.10964,2.2694 -3.22862,3.25071 -5.10382,2.36359 z m 2.99259,-3.66191 c 0.29976,-0.16936 0.69953,-0.52121 0.88837,-0.78191 0.29359,-0.40528 0.34928,-0.59097 0.38411,-1.28077 0.0325,-0.644 -0.004,-0.89463 -0.18146,-1.24231 -0.50433,-0.98857 -1.40413,-1.52922 -2.53117,-1.52088 -1.60824,0.0119 -2.87552,1.38516 -2.66897,2.89214 0.26234,1.91399 2.38007,2.91058 4.10912,1.93373 z"
             id="path56" />
          <path
             style="fill:#00ff66;stroke:#000000;stroke-width:0.111233;stroke-dasharray:none;stroke-opacity:1"
             d="m 111.43701,145.46263 c -7.50245,-0.40238 -14.767987,-3.18905 -20.712323,-7.94414 -1.491263,-1.19291 -4.035586,-3.7259 -5.176332,-5.15328 -3.531349,-4.41864 -5.824516,-9.25346 -6.926887,-14.6044 -0.87264,-4.23581 -0.874479,-9.02881 -0.0051,-13.32248 2.598714,-12.834599 12.642844,-23.255385 25.637932,-26.599345 3.38431,-0.870871 5.55795,-1.145443 9.12624,-1.152822 4.52936,-0.0094 8.45406,0.651412 12.43065,2.092873 11.62291,4.213153 20.19919,13.978374 22.54218,25.667244 0.80092,3.9957 0.84574,8.83581 0.11763,12.70399 -1.37536,7.3068 -5.15621,14.05964 -10.64532,19.0132 -7.22432,6.51948 -16.60188,9.82406 -26.38866,9.29916 z m 5.45784,-8.77261 c 3.56676,-0.36443 6.7627,-1.68543 9.53856,-3.94263 1.58378,-1.28786 4.66087,-4.80815 4.66087,-5.33218 0,-0.2994 -0.31519,-0.15846 -0.5709,0.25529 -0.97858,1.58339 -3.62806,4.33076 -5.34979,5.54746 -4.00621,2.8311 -8.90868,3.79333 -14.3474,2.81604 -4.72542,-0.84913 -10.19315,-3.31325 -15.077269,-6.79483 -0.965721,-0.6884 -1.30379,-0.83074 -1.30379,-0.54894 0,0.14624 2.401972,1.82189 3.99809,2.78912 5.031689,3.04914 9.838809,4.75894 14.770719,5.25365 0.87371,0.0876 2.59978,0.0675 3.68091,-0.043 z m -2.8959,-11.27842 c 2.8751,-0.85352 4.63387,-3.47992 4.23074,-6.31782 -0.40582,-2.85687 -2.87356,-4.94208 -5.84869,-4.94208 -1.94055,0 -3.67734,0.85239 -4.77504,2.34351 -2.3719,3.222 -0.86095,7.61874 3.05364,8.88581 0.80355,0.26009 2.51349,0.27575 3.33935,0.0306 z m -13.10652,-15.5832 c 1.36406,-0.5183 2.51369,-1.85839 3.13968,-3.6598 0.2849,-0.81984 0.33976,-1.16408 0.3826,-2.40082 0.0417,-1.20319 0.0112,-1.60632 -0.18313,-2.41941 -0.87811,-3.674655 -3.68741,-5.531832 -6.370085,-4.211156 -1.299959,0.639969 -2.376274,2.129991 -2.880239,3.987326 -0.341024,1.25684 -0.339926,3.31257 0.0024,4.52311 0.553127,1.95588 1.542504,3.3098 2.9235,4.00068 0.688477,0.34443 0.891169,0.39422 1.604827,0.39422 0.537807,0 1.009347,-0.0732 1.380437,-0.21415 z m 26.20376,-0.2854 c 1.57861,-0.54899 2.92534,-2.38735 3.40658,-4.65017 0.25513,-1.1996 0.14947,-3.30034 -0.22416,-4.45679 -1.5644,-4.842207 -6.3595,-5.452918 -8.55358,-1.08941 -0.56665,1.12692 -0.78212,2.16977 -0.77581,3.7548 0.007,1.70198 0.24399,2.75159 0.89376,3.95459 1.20309,2.22744 3.23433,3.18907 5.25321,2.48698 z"
             id="path57" />
        </g>
      </g>
    </g>
    <path
       sodipodi:type="spiral"
       style="fill:none;fill-rule:evenodd;stroke:#000000;stroke-width:0.264583"
       id="path132"
       sodipodi:cx="108.21458"
       sodipodi:cy="45.508331"
       sodipodi:expansion="1"
       sodipodi:revolution="3"
       sodipodi:radius="11.442273"
       sodipodi:argument="-18.663498"
       sodipodi:t0="0"
       d="m 108.21458,45.508331 c 0.56379,0.106126 0.1351,0.812345 -0.17639,0.937066 -0.84412,0.337987 -1.60331,-0.520326 -1.69775,-1.289843 -0.16892,-1.376487 1.1155,-2.428736 2.4033,-2.458421 1.88991,-0.04356 3.26995,1.715601 3.2191,3.516753 -0.0678,2.400652 -2.31705,4.117375 -4.63021,3.979775 -2.91087,-0.173154 -4.9679,-2.919037 -4.74045,-5.743662 0.27547,-3.420999 3.52131,-5.820206 6.85712,-5.50113 3.93113,0.376021 6.67362,4.123755 6.2618,7.970572 -0.47545,4.441302 -4.72631,7.527785 -9.08402,7.022484 -4.95151,-0.574155 -8.382468,-5.32896 -7.783163,-10.197481 0.67233,-5.461745 5.931663,-9.237527 11.310933,-8.543839 5.97201,0.770125 10.09287,6.534416 9.30452,12.424391"
       transform="translate(-0.66145833,0.79375)" />
  </g>
</svg>
