<?xml version="1.0" encoding="UTF-8" standalone="no"?>
<!-- Created with Inkscape (http://www.inkscape.org/) -->

<svg
   width="1280"
   height="720"
   viewBox="0 0 338.66667 190.5"
   version="1.1"
   id="svg1"
   inkscape:version="1.3.2 (091e20e, 2023-11-25, custom)"
   sodipodi:docname="zipline.svg"
   xmlns:inkscape="http://www.inkscape.org/namespaces/inkscape"
   xmlns:sodipodi="http://sodipodi.sourceforge.net/DTD/sodipodi-0.dtd"
   xmlns:xlink="http://www.w3.org/1999/xlink"
   xmlns="http://www.w3.org/2000/svg"
   xmlns:svg="http://www.w3.org/2000/svg">
  <sodipodi:namedview
     id="namedview1"
     pagecolor="#505050"
     bordercolor="#eeeeee"
     borderopacity="1"
     inkscape:showpageshadow="false"
     inkscape:pageopacity="0"
     inkscape:pagecheckerboard="false"
     inkscape:deskcolor="#505050"
     inkscape:document-units="px"
     labelstyle="default"
     inkscape:zoom="0.84230149"
     inkscape:cx="633.97727"
     inkscape:cy="322.92475"
     inkscape:window-width="1917"
     inkscape:window-height="1034"
     inkscape:window-x="-10"
     inkscape:window-y="0"
     inkscape:window-maximized="0"
     inkscape:current-layer="layer5"
     shape-rendering="auto" />
  <defs
     id="defs1">
    <inkscape:perspective
       sodipodi:type="inkscape:persp3d"
       inkscape:vp_x="0 : 95.25 : 1"
       inkscape:vp_y="0 : 1000 : 0"
       inkscape:vp_z="338.66667 : 95.25 : 1"
       inkscape:persp3d-origin="169.33334 : 63.5 : 1"
       id="perspective3" />
    <color-profile
       name="Agfa-:-Swop-Standard"
       xlink:href="../../Windows/system32/spool/drivers/color/RSWOP.icm"
       id="color-profile2" />
  </defs>
  <g
     inkscape:groupmode="layer"
     id="layer2"
     inkscape:label="Background">
    <path
       style="fill:#666666;stroke:#000000;stroke-width:0.529167"
       d="M 0.45232307,71.385405 23.742827,6.9494115 36.48221,37.50914 69.833713,14.472351 92.72994,38.502388 113.09713,1.1102715 156.16448,42.306162 196.19742,13.925451 261.04787,48.82164 288.94919,12.056484 310.08653,48.477488 323.26907,28.924755 339.25133,76.716618 0.38552087,75.804788"
       id="path8" />
    <rect
       style="fill:#008000;stroke:#000000;stroke-width:0.529167"
       id="rect11"
       width="49.002644"
       height="45.547329"
       x="81.671074"
       y="98.005287" />
    <rect
       style="fill:#008000;stroke:#000000;stroke-width:0.529167"
       id="rect11-8"
       width="49.002644"
       height="45.547329"
       x="216.72974"
       y="97.59745" />
    <path
       style="fill:#00ffff;stroke:#000000;stroke-width:2"
       d="m 265.93803,439.46356 c 0,-57.03012 -0.35178,-114.19493 -0.78174,-127.0329 l -0.78174,-23.34177 h 131.50932 131.50931 l -0.74613,114.27025 c -0.41038,62.84863 -1.0559,119.74631 -1.43448,126.43928 l -0.68834,12.16904 h -14.72604 -14.72605 v -86.6673 -86.66731 h -93.79065 -93.79064 v 87.26092 87.26092 h -20.77641 -20.77641 z"
       id="path12"
       transform="scale(0.26458333)" />
    <path
       style="fill:#6a6058;stroke:#000000;stroke-width:2;fill-opacity:1"
       d="m 267.11911,427.69721 c -0.003,-62.84863 -0.35108,-119.47919 -0.77267,-125.84567 l -0.76653,-11.57543 h 130.25648 130.2565 l -0.69402,84.58967 c -0.3817,46.52431 -1.01236,102.88774 -1.40145,125.25206 l -0.70743,40.6624 h -13.51531 -13.51532 v -86.66731 -86.6673 h -94.97787 -94.97786 v 87.26092 87.26091 h -19.58919 -19.58918 z"
       id="path13"
       transform="scale(0.26458333)" />
    <path
       style="fill:#6a6058;fill-opacity:1;stroke:#000000;stroke-width:2"
       d="m 791.877,494.77533 c -5.3e-4,-25.30269 -0.35538,-81.66612 -0.78855,-125.25206 l -0.78757,-79.24716 h 111.32743 111.32739 l -0.7412,111.30219 c -0.4077,61.21621 -1.0518,117.31251 -1.4314,124.65845 -0.6249,12.09179 -0.904,13.35627 -2.9476,13.35627 -2.1975,0 -2.2573,-2.28009 -2.2573,-86.0737 v -86.07369 h -93.79066 -93.79065 v 86.6673 86.66731 h -13.05945 -13.05946 z"
       id="path14"
       transform="scale(0.26458333)" />
  </g>
  <g
     inkscape:label="midground"
     inkscape:groupmode="layer"
     id="layer1">
    <path
       style="fill:#550000;stroke:#000000;stroke-width:0.529167"
       d="M 0.94235854,73.115391 69.734532,71.933627 70.048651,144.0213 0.31411952,144.80914 Z"
       id="path9" />
    <path
       style="fill:#aa4400;stroke:#000000;stroke-width:0.529167"
       d="M 1.256478,72.561608 37.066102,46.175567 69.734531,72.875726 Z"
       id="path10" />
    <path
       style="fill:#550000;stroke:#000000;stroke-width:0.529167"
       d="m 140.01047,74.010053 68.79217,-1.151202 0.31412,70.223359 -69.73453,0.76747 z"
       id="path9-3" />
    <path
       style="fill:#aa4400;stroke:#000000;stroke-width:0.529167"
       d="m 139.85266,73.260682 35.49636,-26.805988 32.98064,26.313527 z"
       id="path10-1" />
    <path
       style="fill:#550000;stroke:#000000;stroke-width:0.529167"
       d="m 268.47914,73.972321 68.79217,-1.146108 0.31412,69.912627 -69.73453,0.76408 z"
       id="path9-2" />
    <path
       style="fill:#aa4400;stroke:#000000;stroke-width:0.529167"
       d="m 268.16502,73.454235 35.80962,-26.386041 32.66843,26.700159 z"
       id="path10-9" />
  </g>
  <g
     inkscape:groupmode="layer"
     id="layer3"
     inkscape:label="foreground">
    <path
       style="fill:#784421;stroke:#000000;stroke-width:0.529167"
       d="M 1.2659161,144.49497 337.99022,142.92438 338.30671,190.0423 3.5232339e-5,190.35642 Z"
       id="path11" />
  </g>
  <g
     inkscape:groupmode="layer"
     id="layer5"
     inkscape:label="Zipline">
    <path
       style="fill:none;fill-opacity:1;stroke:#000000;stroke-width:0.529167"
       d="m 0.31411952,32.668429 50.88736148,10.680062 74.446319,2.827076 63.45214,13.821259 29.84136,8.795348 27.32839,11.622421 8.48123,18.84717 50.57324,2.512955 35.18138,1.88472"
       id="path19" />
  </g>
  <g
     inkscape:groupmode="layer"
     id="layer4"
     inkscape:label="actor">
    <circle
       style="fill:#f2f2f2;fill-opacity:1;stroke:#000000;stroke-width:0.529167"
       id="path18"
       cx="26.700159"
       cy="46.489689"
       r="8.1671076" />
  </g>
</svg>
